# xmcd CD database file
#
# Track frame offsets:
#	150
#	16423
#	39240
#	54415
#	80455
#	100045
#	123985
#	143225
#	161358
#	180803
#	200930
#	214593
#	236133
#	249258
#
# Disc length: 3567 seconds
#
# Revision: 1
# Processed by: cddbd v1.5.2PL0 Copyright (c) Steve Scherf et al.
# Submitted via: CDex 1.51
#
DISCID=af0ded0e
DTITLE=Robert Lockwood Jr. - Blues Live!
DYEAR=1975
DGENRE=Blues
TTITLE0=Sweet Home Chicago
TTITLE1=Going Down Slow
TTITLE2=Worried Life Blues
TTITLE3=Anna Lee
TTITLE4=One Room Country Shack
TTITLE5=Stormy Monday
TTITLE6=Feel Alright Again
TTITLE7=Honky Tonk
TTITLE8=Mean Black Spider
TTITLE9=Little and Low
TTITLE10=You Upset Me Baby
TTITLE11=Sweet Little Angel
TTITLE12=Just Like A Woman
TTITLE13=Juke
EXTD=YEAR: 1975
EXTT0=
EXTT1=
EXTT2=
EXTT3=
EXTT4=
EXTT5=
EXTT6=
EXTT7=
EXTT8=
EXTT9=
EXTT10=
EXTT11=
EXTT12=
EXTT13=
PLAYORDER=
